<svg id="レイヤー_2" data-name="レイヤー 2" xmlns="http://www.w3.org/2000/svg" width="252.11" height="107.27" viewBox="0 0 252.11 107.27">
  <g id="DESIGN">
    <path id="パス_73" data-name="パス 73" d="M252.11,107.27H0V0H252.11ZM9,98.27H243.11V9H9Z" fill="#fff"/>
    <path id="パス_74" data-name="パス 74" d="M229,58.65H206.33v1.52a9.73,9.73,0,0,1,2.81,3.49,11,11,0,0,1,1,3.69l2.48-.11V88.76h10.11V67.24l6.29.29Z" fill="#fff"/>
    <path id="パス_75" data-name="パス 75" d="M137.76,88.76V58.65h-9.7V69.23h-8.29V58.65h-9.7V88.76h9.7V77.85h8.29V88.76Z" fill="#fff"/>
    <path id="パス_76" data-name="パス 76" d="M203.26,78l-.41-.31v-1l.44-.15a8.87,8.87,0,0,0,4.38-2.67,8,8,0,0,0,1.26-4.88V67.95a1.619,1.619,0,0,0,0-.22,9.94,9.94,0,0,0-.9-3.43,8.74,8.74,0,0,0-2-2.68l-.41-.34-.1-.08-.09-.07-.11-.08-.12-.07a11.6,11.6,0,0,0-3.69-1.67,20.28,20.28,0,0,0-4.94-.58H183.36V75l4.93,13.81h4.94V78.68h1.25l.07.12,4.93,10H211l-6.16-9.2A8.08,8.08,0,0,0,203.26,78Zm-5.54-6a6.6,6.6,0,0,1-3.05.59h-1.44V65.94h1.52a6.16,6.16,0,0,1,3,.62,2.88,2.88,0,0,1,1.28,2.73A2.76,2.76,0,0,1,197.72,72Z" fill="#fff"/>
    <path id="パス_77" data-name="パス 77" d="M164.47,58.65,157,80.18h1.67v8.58h6l.91-3.92h9.63l1,3.92h10.66l-10.7-30.11Zm2.86,20,2.37-10.87h1.44l.16.66c.29,1.8.52,3.06.71,3.88l1.53,6.33Z" fill="#fff"/>
    <path id="パス_78" data-name="パス 78" d="M139.05,88.76h18.32V81.47h-9.95V77.1h5.87l2.34-6.87h-8.21V65.94l9.77-.05,2.51-7.28-20.65.04Z" fill="#fff"/>
    <path id="パス_79" data-name="パス 79" d="M49.29,84.54l.28-.28.26-.27.27-.33.14-.18a14.52,14.52,0,0,0,2-3.27,16.64,16.64,0,0,0,0-12.8,14.37,14.37,0,0,0-2-3.29L50.1,64l-.27-.34-.28-.29-.26-.27-.61-.61a16.4,16.4,0,0,0-5.37-3.18,19.56,19.56,0,0,0-13,0A15.72,15.72,0,0,0,25,62.44a15,15,0,0,0-3.57,5,15.51,15.51,0,0,0-1.3,6.38,15.76,15.76,0,0,0,1.28,6.42,14.14,14.14,0,0,0,3.56,4.9,16.22,16.22,0,0,0,5.35,3.08,20.49,20.49,0,0,0,13.07,0,16.1,16.1,0,0,0,5.34-3.08C48.91,84.93,49.1,84.73,49.29,84.54Zm-7.78-5.78a6.28,6.28,0,0,1-4.69,1.88,6.3,6.3,0,0,1-4.69-1.88A6.65,6.65,0,0,1,30.3,74a6.83,6.83,0,0,1,1.8-4.78,6.11,6.11,0,0,1,4.72-2,6.15,6.15,0,0,1,4.73,2A6.82,6.82,0,0,1,43.34,74a6.61,6.61,0,0,1-1.83,4.76Z" fill="#fff"/>
    <path id="パス_80" data-name="パス 80" d="M99.48,77.1V70.23H90.7V65.94h9.61V58.65H82.45V88.76h18.2V81.47H90.7V77.1Z" fill="#fff"/>
    <path id="パス_81" data-name="パス 81" d="M81.16,88.76V58.65H71.54v18l-10.59-18H51v3.93a16,16,0,0,1,2.81,4.3,18.07,18.07,0,0,1,0,13.85A15.63,15.63,0,0,1,51,85v3.75H61l-.1-17.08L71.26,88.76Z" fill="#fff"/>
    <path id="パス_82" data-name="パス 82" d="M110.07,18.78v30.1h19.69V40.1h-9.58V18.78Z" fill="#fff"/>
    <path id="パス_83" data-name="パス 83" d="M99.15,37.23V30.36H90.37V26.07h9.62V18.78H82.13v30.1h18.19V41.6H90.37V37.23Z" fill="#fff"/>
    <path id="パス_84" data-name="パス 84" d="M80.83,48.89V18.78H71.21v18l-10.59-18H50.64v3.93A16,16,0,0,1,53.45,27a17,17,0,0,1,1.38,6.91,17.1,17.1,0,0,1-1.38,6.94,15.41,15.41,0,0,1-2.81,4.28v3.75h10l-.1-17.08L70.93,48.89Z" fill="#fff"/>
    <path id="パス_85" data-name="パス 85" d="M49.29,44.66l.28-.28.26-.26.27-.33.14-.18a14.52,14.52,0,0,0,2-3.27,15.76,15.76,0,0,0,1.28-6.42,15.64,15.64,0,0,0-1.28-6.38,14.16,14.16,0,0,0-2-3.29l-.14-.17-.27-.34-.28-.29-.25-.26c-.2-.21-.41-.42-.62-.62a16.4,16.4,0,0,0-5.37-3.18,19.59,19.59,0,0,0-13,0A15.77,15.77,0,0,0,25,22.57a14.86,14.86,0,0,0-3.57,5,15.48,15.48,0,0,0-1.3,6.38,15.76,15.76,0,0,0,1.28,6.42,14,14,0,0,0,3.56,4.9,16.22,16.22,0,0,0,5.35,3.08,20.49,20.49,0,0,0,13.07,0,16.27,16.27,0,0,0,5.34-3.08C48.91,45.05,49.1,44.86,49.29,44.66Zm-7.78-5.77a6.28,6.28,0,0,1-4.69,1.88,6.3,6.3,0,0,1-4.69-1.88,6.65,6.65,0,0,1-1.83-4.81,6.87,6.87,0,0,1,1.8-4.79,6.581,6.581,0,0,1,9.45,0,6.86,6.86,0,0,1,1.79,4.79,6.61,6.61,0,0,1-1.83,4.81Z" fill="#fff"/>
    <path id="パス_86" data-name="パス 86" d="M181.98,48.88h20.16V41.6h-9.96V37.23h8.79V30.36h-8.79V26.07h9.62V18.78H186.19l-4.21,10.88Z" fill="#fff"/>
    <path id="パス_87" data-name="パス 87" d="M158.43,27.54a14.61,14.61,0,0,0-3.59-5,16.7,16.7,0,0,0-1.57-1.21l-.6-.4c-.19-.12-.38-.24-.58-.35a16.191,16.191,0,0,0-2.62-1.22,19.56,19.56,0,0,0-13,0,15.67,15.67,0,0,0-5.34,3.18,15,15,0,0,0-3.58,5,15.48,15.48,0,0,0-1.29,6.38,16.29,16.29,0,0,0,.71,4.89h4.07v6.38a.12.12,0,0,1,0,.05,16.22,16.22,0,0,0,5.35,3.08,20.49,20.49,0,0,0,13.07,0,16.07,16.07,0,0,0,5.34-3.08,14,14,0,0,0,3.57-4.9,15.148,15.148,0,0,0,.62-1.75l.15-.58.08-.34.12-.49a17.492,17.492,0,0,0,.3-3.26,15.8,15.8,0,0,0-1.21-6.38ZM147.67,38.89a6.79,6.79,0,0,1-9.38,0,6.65,6.65,0,0,1-1.83-4.81,6.87,6.87,0,0,1,1.8-4.79,6.63,6.63,0,0,1,9.45,0,6.86,6.86,0,0,1,1.79,4.79,6.61,6.61,0,0,1-1.83,4.81Z" fill="#fff"/>
    <path id="パス_88" data-name="パス 88" d="M174.33,18.78l-4,13.82a16.11,16.11,0,0,0-.77,4.48v.65H168v-.65a19.489,19.489,0,0,0-.77-4.49l-4-13.81H152.72l.34.88a17.47,17.47,0,0,1,2.64,1.95,15.81,15.81,0,0,1,3.91,5.4A17,17,0,0,1,161,33.92a17.923,17.923,0,0,1-.619,4.666l4,10.3h8.78l11.66-30.11Z" fill="#fff"/>
  </g>
</svg>
