<svg xmlns="http://www.w3.org/2000/svg" width="1399.715" height="63.014" viewBox="0 0 1399.715 63.014">
  <path id="前面オブジェクトで型抜き_3" data-name="前面オブジェクトで型抜き 3" d="M1399.715,63.014H0V0C1.611,1.294,6.613,4.233,15.413,8.256A315.539,315.539,0,0,0,46.994,20.543,337.046,337.046,0,0,0,89.647,31.7a260.894,260.894,0,0,0,48.63,4.865c17.408,0,35.725-2.49,56-7.613,17.638-4.458,34.3-10.283,49-15.423C264.031,6.269,281.961,0,295.485,0a57.863,57.863,0,0,1,18.6,2.614,66.472,66.472,0,0,1,12.479,5.98,80.016,80.016,0,0,0,14.277,6.837A88.39,88.39,0,0,0,364.4,19.7c2.961.183,6.167.276,9.527.276,19.08,0,41.455-2.883,65.143-5.936l1.849-.238c22.472-2.894,47.941-6.174,70.2-6.174,1.058,0,2.111.007,3.13.022,24.068.343,52.967,7.715,80.914,14.844l0,0h0c13.448,3.43,27.353,6.977,40.258,9.6,6.942,1.409,13.076,2.452,18.753,3.187a143.074,143.074,0,0,0,17.241,1.289c.462,0,.932.006,1.4.006a370.726,370.726,0,0,0,39.116-2.636c12.638-1.4,26.982-3.351,42.634-5.8,26.686-4.176,48.135-8.395,48.349-8.437a146.639,146.639,0,0,1,18-5.08c6.573-1.475,13.373-2.65,20.212-3.493a210.523,210.523,0,0,1,25.655-1.588A185.888,185.888,0,0,1,928.344,19.7c19,6.647,41.814,11.5,67.813,14.412,10.27,1.152,21.076,2,32.117,2.527,8.894.423,17.974.637,26.989.637,16.207,0,26.744-.7,26.849-.709a47.571,47.571,0,0,0,4.859.19,158.56,158.56,0,0,0,27.391-2.825A343.769,343.769,0,0,0,1166.749,19.7,319.062,319.062,0,0,1,1214.1,6.916a203.038,203.038,0,0,1,36.309-3.647,102.386,102.386,0,0,1,16.723,1.22,37.446,37.446,0,0,1,10.653,3.155c6.217,3.237,25.381,8.983,46.6,13.972,11.148,2.621,22,4.827,31.375,6.381,10.722,1.776,19.282,2.677,25.444,2.677h18.507V63.013h0Z" transform="translate(0)" fill="#ff2eae"/>
</svg>
