<svg xmlns="http://www.w3.org/2000/svg" width="1400.715" height="63.015" viewBox="0 0 1400.715 63.015">
  <path id="前面オブジェクトで型抜き_7" data-name="前面オブジェクトで型抜き 7" d="M1400.715,0H0V63.015c1.612-1.294,6.617-4.233,15.424-8.257a315.9,315.9,0,0,1,31.6-12.286A337.481,337.481,0,0,1,89.711,31.316a261.261,261.261,0,0,1,48.665-4.865c17.421,0,35.75,2.49,56.035,7.613,17.651,4.458,34.324,10.283,49.033,15.423,20.776,7.259,38.718,13.528,52.252,13.528a57.943,57.943,0,0,0,18.61-2.614,66.54,66.54,0,0,0,12.488-5.98,80.1,80.1,0,0,1,14.287-6.837,88.51,88.51,0,0,1,23.582-4.265c2.963-.183,6.171-.276,9.534-.276,19.094,0,41.484,2.883,65.189,5.936l1.85.238c22.488,2.894,47.976,6.174,70.255,6.174,1.059,0,2.113-.007,3.132-.022,24.085-.343,53-7.715,80.972-14.844l0,0h0c13.457-3.43,27.373-6.977,40.287-9.6,6.947-1.409,13.085-2.452,18.766-3.187a143.276,143.276,0,0,1,17.253-1.289c.462,0,.932-.006,1.4-.006a371.253,371.253,0,0,1,39.144,2.636c12.647,1.4,27,3.351,42.664,5.8,26.705,4.176,48.17,8.395,48.383,8.437a146.824,146.824,0,0,0,18.012,5.08c6.578,1.475,13.383,2.65,20.227,3.493a210.821,210.821,0,0,0,25.674,1.588,186.141,186.141,0,0,0,61.6-10.161c19.012-6.647,41.844-11.5,67.861-14.412,10.277-1.152,21.091-2,32.14-2.527,8.9-.423,17.987-.637,27.008-.637,16.218,0,26.763.7,26.868.709a47.64,47.64,0,0,1,4.863-.19,158.784,158.784,0,0,1,27.41,2.825,344.211,344.211,0,0,1,52.426,14.233A319.468,319.468,0,0,0,1214.968,56.1a203.323,203.323,0,0,0,36.335,3.647,102.53,102.53,0,0,0,16.734-1.22,37.493,37.493,0,0,0,10.66-3.155c6.221-3.237,25.4-8.983,46.637-13.972,11.156-2.621,22.013-4.827,31.4-6.381,10.729-1.776,19.3-2.677,25.462-2.677h18.52V0h0Z" fill="#ff66c4"/>
</svg>
